<?xml version="1.0" standalone="no"?>
<!DOCTYPE svg PUBLIC "-//W3C//DTD SVG 20010904//EN"
 "http://www.w3.org/TR/2001/REC-SVG-20010904/DTD/svg10.dtd">
<svg version="1.0" xmlns="http://www.w3.org/2000/svg"
 width="1069.000000pt" height="1069.000000pt" viewBox="0 0 1069.000000 1069.000000"
 preserveAspectRatio="xMidYMid meet">
<metadata>
Created by potrace 1.11, written by Peter Selinger 2001-2013
</metadata>
<g transform="translate(0.000000,1069.000000) scale(0.100000,-0.100000)"
fill="#000000" stroke="none">
<path d="M769 7834 c-150 -51 -276 -193 -312 -350 -32 -138 0 -364 73 -519 64
-136 156 -208 302 -239 37 -8 73 -20 81 -28 7 -7 44 -58 81 -113 86 -125 183
-246 358 -448 142 -164 298 -355 360 -442 54 -75 118 -184 118 -199 0 -7 -116
-125 -257 -262 -359 -348 -676 -664 -699 -697 -36 -53 -120 -95 -204 -103 -25
-2 -61 -6 -80 -9 -124 -14 -328 -126 -413 -225 -69 -81 -161 -289 -173 -393
-13 -107 39 -210 175 -347 90 -91 189 -163 250 -180 170 -50 444 8 625 132 52
35 151 141 182 194 28 48 29 52 28 189 -1 77 -4 177 -7 221 l-7 82 48 38 c92
76 257 248 477 499 97 110 274 288 308 309 39 24 67 17 94 -23 29 -42 69 -167
78 -241 3 -30 9 -68 11 -85 3 -16 11 -70 19 -120 8 -49 21 -126 29 -170 8 -44
18 -102 22 -130 3 -27 8 -53 10 -56 1 -3 6 -28 10 -55 3 -27 12 -81 18 -119
19 -108 14 -139 -25 -172 -97 -82 -135 -170 -138 -323 -5 -189 70 -384 197
-517 61 -63 74 -72 117 -78 68 -11 254 1 333 21 154 38 295 141 352 258 37 75
41 92 42 186 1 162 -55 267 -225 417 -44 39 -58 82 -92 283 -22 128 -43 242
-60 335 -3 17 -17 84 -30 150 -13 66 -26 131 -29 145 -27 135 -66 355 -64 361
2 4 21 -1 43 -12 22 -10 92 -40 155 -67 63 -27 147 -64 185 -82 39 -18 126
-57 195 -87 69 -30 159 -71 200 -90 41 -19 116 -53 165 -75 121 -53 220 -106
239 -127 8 -9 22 -43 31 -76 47 -185 176 -317 365 -377 78 -24 227 -31 315
-15 87 17 153 79 228 217 36 66 91 216 102 280 3 19 10 53 15 75 13 57 4 269
-15 339 -38 144 -140 225 -345 277 -153 39 -301 14 -420 -71 -38 -27 -64 -25
-115 10 -24 17 -66 40 -92 51 -81 35 -944 319 -1062 350 -41 10 -75 20 -77 22
-3 3 305 320 563 581 322 325 415 398 525 410 142 15 241 123 287 313 15 63
18 109 16 233 -2 161 -5 182 -32 265 -39 123 -113 221 -197 263 -209 105 -521
-99 -621 -406 -11 -34 -18 -91 -19 -157 l-2 -104 -70 -73 c-100 -106 -257
-278 -355 -388 -46 -52 -95 -106 -108 -120 -13 -14 -44 -50 -70 -80 -130 -155
-315 -338 -358 -356 -43 -18 -97 -27 -158 -26 -58 1 -61 3 -134 128 -59 99
-198 292 -328 457 -53 67 -99 124 -103 127 -13 11 -238 298 -270 344 -41 60
-60 123 -53 173 31 224 -34 415 -193 569 -122 119 -292 171 -415 128z m186
-134 c120 -36 246 -197 300 -383 37 -128 17 -183 -113 -314 -104 -104 -188
-148 -282 -148 -54 1 -75 6 -113 28 -119 70 -215 286 -209 472 3 114 105 271
212 325 71 36 131 42 205 20z m3022 -232 c80 -77 146 -275 144 -434 -3 -269
-130 -408 -310 -342 -68 25 -137 74 -191 136 -122 138 -132 336 -25 482 53 72
168 153 275 193 30 11 74 -3 107 -35z m-2672 -546 c12 -9 59 -69 105 -132 46
-63 87 -117 90 -120 3 -3 61 -77 130 -165 68 -88 138 -176 154 -196 17 -19 66
-84 110 -143 131 -179 189 -287 165 -302 -11 -7 -98 78 -144 141 -17 22 -32
42 -36 45 -5 4 -25 31 -114 149 -10 14 -80 109 -154 211 -74 102 -148 204
-165 227 -17 23 -40 54 -51 69 -11 15 -43 58 -72 95 -62 82 -76 106 -69 125 7
19 26 17 51 -4z m-84 -194 c42 -51 120 -154 175 -228 109 -149 159 -214 250
-329 230 -290 310 -419 284 -461 -14 -22 -99 64 -422 428 -65 73 -291 346
-359 434 -132 171 -136 184 -76 225 55 37 67 31 148 -69z m2255 66 c4 -14 2
-35 -4 -47 -15 -32 -99 -130 -282 -327 -130 -140 -142 -152 -244 -264 -212
-234 -316 -333 -316 -301 0 30 76 132 174 235 79 82 183 205 274 322 148 191
349 408 378 408 7 0 17 -12 20 -26z m197 -156 c20 -16 37 -34 37 -38 0 -11
-161 -172 -371 -370 -90 -85 -245 -237 -345 -337 -208 -210 -255 -243 -254
-180 1 37 20 61 160 204 147 150 291 308 442 485 34 40 65 75 68 78 3 3 18 21
34 40 15 19 56 65 89 102 67 74 65 74 140 16z m-1195 -862 c62 -31 118 -99
166 -200 110 -229 75 -363 -122 -469 -120 -64 -223 -76 -312 -35 -72 33 -169
112 -185 152 -30 70 -39 298 -15 372 30 96 117 179 215 203 72 18 194 7 253
-23z m612 -431 c52 -14 104 -27 114 -30 44 -10 421 -141 561 -195 253 -96 314
-134 271 -166 -55 -40 -177 -6 -611 169 -143 57 -318 124 -388 148 -134 46
-186 76 -172 99 11 18 104 7 225 -25z m-1210 -43 c0 -90 -584 -724 -826 -898
-63 -45 -103 -55 -124 -30 -19 24 12 75 98 159 42 41 107 106 143 144 119 122
289 279 375 345 16 12 31 25 34 28 3 3 39 34 80 69 41 36 105 96 141 133 36
37 69 68 72 68 4 0 7 -8 7 -18z m1076 -153 c353 -91 881 -301 991 -393 28 -24
30 -29 23 -62 -10 -43 -9 -42 -43 -48 -57 -10 -267 79 -683 290 -285 144 -456
244 -416 244 5 0 63 -14 128 -31z m-986 -43 c0 -2 2 -11 5 -18 3 -8 -8 -30
-25 -49 -17 -19 -84 -99 -148 -179 -238 -294 -355 -425 -482 -537 -80 -71
-193 -139 -212 -127 -28 18 3 58 196 253 112 113 239 244 282 291 241 259 384
396 384 366z m2665 -41 c123 -27 207 -127 233 -274 13 -75 7 -223 -13 -296
-22 -82 -75 -192 -126 -262 -69 -92 -89 -112 -111 -108 -12 3 -60 7 -107 11
-76 5 -107 9 -210 30 -45 9 -120 54 -144 86 -44 58 -60 137 -61 308 0 152 0
156 27 205 41 73 176 235 222 267 22 15 56 31 75 36 38 10 166 8 215 -3z
m-2022 -124 c127 -487 153 -599 187 -832 21 -141 27 -239 16 -257 -15 -25 -46
-19 -75 14 -34 39 -48 81 -55 174 -6 63 -13 129 -22 180 -2 14 -9 54 -14 90
-5 36 -30 187 -55 335 -48 285 -53 341 -32 348 28 9 36 1 50 -52z m-216 -33
c37 -30 82 -189 118 -408 10 -58 19 -112 20 -120 1 -8 6 -44 10 -80 3 -36 8
-76 10 -90 7 -43 15 -124 20 -190 2 -36 7 -83 9 -105 6 -46 -2 -64 -32 -70
-15 -3 -27 3 -37 18 -15 23 -17 32 -35 173 -6 44 -12 89 -14 100 -2 10 -7 39
-11 64 -24 156 -106 589 -126 664 -6 21 -8 44 -5 52 6 17 49 12 73 -8z m-1636
-618 c78 -24 238 -125 299 -189 131 -138 140 -327 22 -477 -80 -102 -210 -167
-416 -209 -115 -24 -181 -12 -296 56 -151 88 -240 192 -240 280 0 51 99 332
128 363 56 60 223 156 315 181 72 19 115 18 188 -5z m2027 -534 c115 -17 254
-143 326 -296 26 -55 31 -77 31 -145 0 -172 -65 -241 -268 -287 -121 -27 -262
-28 -340 -3 -92 29 -171 131 -207 266 -56 209 101 432 330 468 46 8 53 7 128
-3z"/>
<path d="M833 7689 c-90 -16 -149 -67 -183 -157 -31 -82 -42 -139 -42 -232 -1
-73 3 -93 25 -141 62 -130 191 -220 315 -220 153 -1 241 104 240 289 0 98 -24
198 -69 287 -66 134 -168 195 -286 174z m83 -155 c40 -19 72 -50 98 -95 l19
-32 -35 26 c-42 32 -86 35 -143 8 -113 -52 -139 -169 -54 -239 47 -38 80 -43
127 -18 51 26 89 76 105 136 l11 45 11 -50 c15 -65 11 -131 -8 -178 -43 -102
-220 -77 -280 40 -33 62 -42 223 -17 298 23 69 92 94 166 59z"/>
<path d="M3751 7328 c-53 -14 -81 -38 -122 -101 -57 -88 -68 -192 -29 -272 44
-90 196 -179 307 -180 54 0 66 4 99 31 50 40 80 102 89 183 23 205 -18 295
-150 334 -56 16 -143 19 -194 5z m151 -74 c50 -26 80 -85 86 -167 6 -96 -11
-187 -40 -210 -29 -24 -99 -18 -165 14 l-47 23 30 9 c58 19 114 95 114 155 0
26 -39 80 -59 83 -3 0 -14 2 -24 4 -26 5 -78 -14 -104 -38 -23 -20 -23 -20
-23 -1 0 34 51 102 89 118 63 27 105 30 143 10z"/>
<path d="M4530 4973 c-165 -18 -323 -111 -371 -219 -10 -22 -21 -70 -25 -106
-17 -175 77 -343 234 -416 49 -23 70 -27 148 -27 133 0 155 17 199 155 10 30
38 98 63 150 36 74 46 105 45 142 -2 62 -39 207 -62 238 -35 48 -154 91 -231
83z m79 -143 c70 -20 75 -58 31 -223 -16 -62 -30 -136 -31 -166 -4 -75 -22
-95 -91 -97 -113 -5 -213 80 -251 211 -38 134 26 229 188 281 41 13 94 11 154
-6z"/>
<path d="M570 4213 c-40 -6 -123 -35 -150 -51 -137 -85 -248 -352 -196 -475
30 -73 143 -141 257 -155 66 -8 280 -7 319 1 8 2 33 7 55 12 143 28 230 134
234 286 6 194 -85 310 -284 366 -50 14 -188 23 -235 16z m200 -119 c83 -14
149 -67 188 -152 30 -66 25 -110 -16 -161 -64 -80 -167 -112 -363 -112 -208
-1 -235 18 -227 156 5 78 23 121 70 165 38 37 146 90 213 106 48 11 61 11 135
-2z"/>
<path d="M594 4019 c-71 -22 -138 -79 -149 -128 -9 -41 18 -96 68 -135 47 -37
113 -44 168 -15 68 34 129 127 129 196 0 20 -40 63 -78 82 -38 20 -74 20 -138
0z"/>
<path d="M2624 3636 c-63 -15 -113 -46 -155 -93 -45 -52 -62 -98 -62 -173 -1
-91 26 -164 79 -215 59 -58 126 -76 264 -71 160 5 295 59 334 135 68 131 -51
369 -206 413 -66 19 -187 21 -254 4z m284 -143 c41 -20 76 -65 92 -119 16 -54
-3 -84 -74 -119 -56 -27 -126 -43 -126 -29 0 5 14 25 30 44 52 60 56 128 11
174 -28 27 -125 26 -185 -3 -99 -48 -77 -162 40 -205 l39 -15 -59 0 c-84 -1
-139 26 -154 77 -23 74 4 156 60 189 38 22 100 42 143 45 37 4 139 -18 183
-39z"/>
<path d="M6610 6085 l0 -985 106 0 106 0 -5 818 c-2 449 -7 827 -10 840 -3 12
-2 22 2 22 5 0 45 -100 89 -222 167 -464 434 -1194 442 -1213 5 -11 26 -69 48
-130 l39 -110 147 -3 146 -3 0 986 0 985 -106 0 -106 0 6 -772 c2 -425 7 -809
10 -853 4 -62 3 -74 -5 -55 -8 19 -557 1505 -611 1653 l-10 27 -144 0 -144 0
0 -985z"/>
<path d="M8328 7002 l-38 -3 0 -207 0 -208 -210 1 -210 1 0 -98 0 -98 210 0
210 0 1 -467 c0 -258 2 -481 4 -498 9 -69 18 -101 40 -144 30 -58 63 -93 120
-126 79 -47 128 -54 384 -55 l238 -1 1 78 c1 131 27 118 -231 119 -246 0 -264
4 -311 67 -21 28 -21 38 -24 528 l-3 499 298 0 298 0 0 95 c0 57 -4 96 -10 96
-5 1 -134 3 -285 4 -151 1 -282 3 -290 4 -13 1 -15 30 -12 206 2 113 -1 205
-5 206 -35 3 -145 3 -175 1z"/>
<path d="M5639 6590 c-122 -30 -246 -113 -308 -207 -32 -48 -75 -168 -66 -183
3 -5 52 -8 109 -8 l104 1 11 39 c14 45 60 101 112 133 62 40 131 55 237 51
115 -3 167 -23 229 -85 63 -63 78 -113 78 -256 l0 -119 -280 -1 c-154 -1 -289
-4 -300 -8 -11 -3 -35 -9 -54 -12 -92 -16 -235 -123 -274 -205 -69 -147 -61
-335 19 -457 88 -132 225 -195 424 -196 119 -1 144 2 232 32 110 37 189 111
224 208 13 37 13 34 15 -67 1 -58 0 -115 -1 -127 -1 -23 1 -23 107 -23 l108 0
-1 542 c-1 539 -2 572 -31 658 -47 142 -174 252 -344 297 -13 3 -80 7 -149 9
-95 2 -143 -2 -201 -16z m510 -937 c-1 -157 -16 -212 -73 -279 -35 -41 -138
-100 -191 -110 -229 -42 -385 7 -451 142 -52 107 -32 238 49 315 61 59 107 66
405 68 l263 2 -2 -138z"/>
<path d="M9681 6594 c-224 -47 -342 -202 -329 -435 5 -90 33 -170 79 -223 54
-62 195 -133 299 -150 19 -3 46 -8 60 -10 45 -9 144 -25 185 -31 180 -26 266
-104 268 -240 1 -112 -60 -192 -172 -224 -47 -14 -265 -17 -328 -5 -95 18
-162 65 -197 137 l-24 51 -105 1 c-117 1 -108 8 -91 -70 30 -140 179 -269 354
-305 95 -20 366 -18 450 4 217 55 330 200 330 421 0 196 -95 326 -286 391 -50
17 -50 17 -169 39 -84 15 -111 20 -185 30 -60 9 -158 42 -191 66 -78 55 -85
225 -13 300 54 56 104 70 264 75 198 5 295 -36 339 -145 l13 -31 108 0 108 0
-13 43 c-31 104 -71 162 -155 228 -59 46 -110 68 -192 84 -88 17 -325 16 -407
-1z"/>
<path d="M5360 4535 l0 -315 38 0 38 0 -1 135 0 135 50 0 51 0 61 -132 61
-133 46 -3 46 -3 -65 129 c-68 136 -73 152 -52 152 20 0 78 61 93 97 27 63 12
154 -33 202 -37 39 -85 51 -213 51 l-120 0 0 -315z m271 218 c34 -34 42 -87
21 -138 -18 -45 -48 -58 -137 -63 l-80 -4 0 122 0 122 83 -4 c76 -4 86 -7 113
-35z"/>
<path d="M8221 4753 c0 -126 1 -122 -20 -96 -40 48 -135 58 -191 20 -62 -41
-73 -74 -74 -216 -1 -107 2 -132 19 -165 28 -55 64 -78 129 -84 56 -5 99 12
119 45 13 22 25 15 19 -12 -4 -23 -2 -25 35 -25 l38 0 0 313 0 312 -37 3 -37
3 0 -98z m-71 -123 c56 -15 72 -53 73 -170 1 -116 -12 -152 -59 -175 -46 -22
-97 -11 -129 27 -23 28 -25 37 -25 139 0 61 5 119 11 130 10 20 66 59 84 59 6
0 26 -5 45 -10z"/>
<path d="M5955 4677 c-65 -36 -85 -88 -85 -222 0 -134 20 -186 85 -222 78 -44
206 -21 253 45 31 43 29 62 -8 62 -21 0 -39 -9 -58 -31 -25 -28 -35 -32 -84
-33 -35 0 -62 5 -73 14 -25 21 -45 72 -45 115 l0 35 149 0 148 0 -2 68 c-3 76
-13 106 -45 141 -53 55 -164 68 -235 28z m155 -54 c30 -13 47 -44 53 -95 l5
-38 -115 0 -115 0 4 38 c3 20 10 47 17 60 24 44 91 60 151 35z"/>
<path d="M6485 4684 c-82 -42 -95 -74 -95 -224 0 -139 10 -174 64 -215 31 -23
49 -29 109 -32 61 -3 78 -1 111 19 44 25 73 67 78 112 3 26 0 29 -30 32 -24 2
-35 -2 -39 -14 -11 -37 -28 -64 -45 -73 -31 -16 -91 -18 -120 -3 -45 23 -58
61 -58 172 0 86 3 103 23 132 47 71 175 57 192 -20 4 -18 13 -31 23 -32 55 -4
57 -3 54 27 -9 81 -79 135 -177 135 -35 0 -72 -7 -90 -16z"/>
<path d="M7013 4692 c-35 -11 -91 -70 -102 -106 -13 -50 -8 -256 8 -285 33
-60 90 -91 169 -91 70 0 130 34 159 89 21 41 23 56 20 166 -2 105 -5 125 -26
158 -31 50 -86 77 -153 76 -29 -1 -63 -4 -75 -7z m129 -67 c39 -16 51 -54 51
-164 1 -126 -11 -159 -65 -179 -51 -20 -117 0 -136 41 -19 39 -19 224 -1 263
22 44 92 63 151 39z"/>
<path d="M7574 4690 c-12 -4 -31 -21 -43 -36 l-21 -27 0 32 c0 29 -3 31 -34
31 l-33 0 -1 -235 0 -235 37 0 37 0 -1 158 c-2 207 6 232 77 252 69 20 124
-17 134 -90 6 -45 7 -47 38 -46 31 2 31 2 31 56 0 65 -26 109 -79 134 -36 17
-107 20 -142 6z"/>
<path d="M8531 4682 c-48 -26 -73 -75 -67 -131 8 -66 54 -107 131 -117 85 -11
130 -29 143 -57 32 -66 -15 -107 -113 -103 -52 3 -62 7 -85 34 -20 24 -35 32
-59 32 -31 0 -33 -2 -26 -27 9 -36 42 -72 82 -89 42 -18 164 -18 208 0 44 19
75 69 75 123 0 87 -41 123 -169 147 -46 9 -90 21 -98 27 -17 15 -17 70 1 94
11 15 27 19 81 19 61 1 69 -1 91 -27 19 -23 31 -28 59 -25 l35 3 -17 35 c-30
58 -74 80 -162 80 -55 0 -86 -5 -110 -18z"/>
</g>
</svg>
